# AST/ASF file generated using VICON BodyLanguage
# -----------------------------------------------
:version 1.10
:name VICON
:units
  mass 1.0
  length 0.45
  angle deg
:documentation
   .ast/.asf automatically generated from VICON data using
   VICON BodyBuilder and BodyLanguage model FoxedUp or BRILLIANT.MOD
:root
   order TX TY TZ RX RY RZ
   axis XYZ
   position 0 0 0  
   orientation 0 0 0 
:bonedata
  begin
     id 1 
     name lhipjoint
     direction 0.710087 -0.641647 0.289942 
     length 2.79038 
     axis 0 0 0  XYZ
  end
  begin
     id 2 
     name lfemur
     direction 0.34202 -0.939693 0  
     length 7.2706  
     axis 0 0 20  XYZ
    dof rx ry rz
    limits (-160.0 20.0)
           (-70.0 70.0)
           (-60.0 70.0)
  end
  begin
     id 3 
     name ltibia
     direction 0.34202 -0.939693 0   
     length 7.86328   
     axis 0 0 20   XYZ
    dof rx
    limits (-10.0 170.0)
  end
  begin
     id 4 
     name lfoot
     direction 0.0541246 -0.148706 0.987399   
     length 2.37542   
     axis -90 7.62852e-016 20   XYZ
    dof rx rz
    limits (-45.0 90.0)
           (-70.0 20.0)
  end
  begin
     id 5 
     name ltoes
     direction 1.53554e-011 -4.21866e-011 1   
     length 1.19593   
     axis -90 7.62852e-016 20   XYZ
    dof rx
    limits (-90.0 20.0)
  end
  begin
     id 6 
     name rhipjoint
     direction -0.675762 -0.671724 0.303533   
     length 2.66544  
     axis 0 0 0  XYZ 
  end
  begin
     id 7 
     name rfemur
     direction -0.34202 -0.939693 0   
     length 8.11844   
     axis 0 0 -20   XYZ
    dof rx ry rz
    limits (-160.0 20.0)
           (-70.0 70.0)
           (-70.0 60.0)
  end
  begin
     id 8 
     name rtibia
     direction -0.34202 -0.939693 0   
     length 7.97082   
     axis 0 0 -20   XYZ
    dof rx
    limits (-10.0 170.0)
 end
 begin
     id 9 
     name rfoot
     direction -0.0726228 -0.199474 0.977208   
     length 2.19677  
     axis -90 -7.62852e-016 -20   XYZ
    dof rx rz
    limits (-45.0 90.0)
           (-20.0 70.0)
  end
  begin
     id 10 
     name rtoes
     direction -1.53508e-011 -4.21913e-011 1   
     length 1.10438   
     axis -90 -7.62852e-016 -20   XYZ
    dof rx
    limits (-90.0 20.0)
  end
  begin
     id 11 
     name lowerback
     direction -0.00404436 0.999673 -0.0252643   
     length 2.03972   
     axis 0 0 0   XYZ
    dof rx ry rz
    limits (-20.0 45.0)
           (-30.0 30.0)
           (-30.0 30.0)
  end
  begin
     id 12 
     name upperback
     direction 0.00744643 0.999969 0.00242763   
     length 2.04273   
     axis 0 0 0   XYZ
    dof rx ry rz
    limits (-20.0 45.0)
           (-30.0 30.0)
           (-30.0 30.0)
  end
  begin
     id 13 
     name thorax
     direction 0.00846113 0.999862 0.0143204   
     length 2.03752   
     axis 0 0 0   XYZ
    dof rx ry rz
    limits (-20.0 45.0)
           (-30.0 30.0)
           (-30.0 30.0)
  end
  begin
     id 14 
     name lowerneck
     direction 0.0328213 0.990857 0.130862   
     length 1.37497   
     axis 0 0 0   XYZ
    dof rx ry rz
    limits (-20.0 45.0)
           (-30.0 30.0)
           (-30.0 30.0)
  end
  begin
     id 15 
     name upperneck
     direction -0.0302832 0.999496 0.00956452   
     length 1.35926   
     axis 0 0 0   XYZ
    dof rx ry rz
    limits (-20.0 45.0)
           (-30.0 30.0)
           (-30.0 30.0)
  end
  begin
     id 16
     name head
     direction -0.0130455 0.999856 -0.0108809  
     length 1.44454  
     axis 0 0 0   XYZ
    dof rx ry rz
    limits (-20.0 45.0)
           (-30.0 30.0)
           (-30.0 30.0)
  end
  begin
     id 17 
     name lclavicle
     direction 0.952957 0.278766 0.119006  
     length 3.10112  
     axis 0 0 0   XYZ
    dof ry rz
    limits (-20.0 10.0)
           (0.0 20.0)
  end
  begin
     id 18 
     name lhumerus
     direction 1 -4.48972e-011 -1.63238e-028   
     length 5.82845   
     axis -180 -30 -90   XYZ
    dof rx ry rz
    limits (-60.0 90.0)
           (-90.0 90.0)
           (-90.0 90.0)
  end
  begin
     id 19
     name lradius
     direction 1 -4.48959e-011 1.45401e-026   
     length 3.49691   
     axis -180 -30 -90   XYZ
    dof rx
    limits (-10.0 170.0)
  end
  begin
     id 20
     name lwrist
     direction 1 -4.48945e-011 2.98015e-026   
     length 1.74845   
     axis -1.7599e-014 90 90   XYZ
    dof ry
    limits (-180.0 0.0)
 end
  begin
     id 21 
     name lhand
     direction 1 -4.4902e-011 5.9603e-026   
     length 0.674998   
     axis -3.80318e-014 90 90   XYZ
    dof rx rz
    limits (-90.0 90.0)
           (-45.0 45.0)
  end
  begin
     id 22 
     name lfingers
     direction 1 -4.48979e-011 1.19206e-025   
     length 0.544201   
     axis -7.60636e-014 90 90   XYZ
    dof rx
    limits (0.0 90.0)
  end
  begin
     id 23
     name lthumb
     direction 0.707107 -6.34941e-011 0.707107   
     length 0.781367   
     axis -90 45 2.85299e-015   XYZ
    dof rx rz
    limits (-45.0 45.0)
           (-45.0 45.0)
  end
  begin
     id 24 
     name rclavicle
     direction -0.967632 0.241887 0.0719654   
     length 3.53012  
     axis 0 0 0   XYZ 
    dof ry rz
    limits (-10.0 20.0)
           (-20.0 0.0)
  end
  begin
     id 25 
     name rhumerus
     direction -1 -4.4897e-011 6.87619e-028  
     length 5.45859   
     axis -180 30 90   XYZ
    dof rx ry rz
    limits (-90.0 60.0)
           (-90.0 90.0)
           (-90.0 90.0)
  end
  begin
     id 26 
     name rradius
     direction -1 -4.48967e-011 1.68055e-026   
     length 3.58491   
     axis -180 30 90   XYZ
    dof rx
    limits (-10.0 170.0)
  end
  begin
     id 27 
     name rwrist
     direction -1 -4.48976e-011 2.98015e-026   
     length 1.79245   
     axis -1.7599e-014 -90 -90   XYZ
    dof ry
    limits (-180.0 0.0)
  end
  begin
     id 28
     name rhand
     direction -1 -4.48996e-011 5.9603e-026   
     length 0.683735   
     axis -3.80318e-014 -90 -90   XYZ
    dof rx rz
    limits (-90.0 90.0)
           (-45.0 45.0)
  end
  begin
     id 29
     name rfingers
     direction -1 -4.48924e-011 1.19206e-025   
     length 0.551245   
     axis -7.60636e-014 -90 -90   XYZ
    dof rx
    limits (0.0 90.0)
  end
  begin
     id 30
     name rthumb
     direction -0.707107 -6.3492e-011 0.707107   
     length 0.791481   
     axis -90 -45 -2.85299e-015   XYZ
    dof rx rz
    limits (-45.0 45.0)
           (-45.0 45.0)
  end
:hierarchy
  begin
    root lhipjoint rhipjoint lowerback
    lhipjoint lfemur
    lfemur ltibia
    ltibia lfoot
    lfoot ltoes
    rhipjoint rfemur
    rfemur rtibia
    rtibia rfoot
    rfoot rtoes
    lowerback upperback
    upperback thorax
    thorax lowerneck lclavicle rclavicle
    lowerneck upperneck
    upperneck head
    lclavicle lhumerus
    lhumerus lradius
    lradius lwrist
    lwrist lhand lthumb
    lhand lfingers
    rclavicle rhumerus
    rhumerus rradius
    rradius rwrist
    rwrist rhand rthumb
    rhand rfingers
  end

#!OML:ASF F:\VICON\USERDATA\INSTALL\rory3\rory3.ASF
:FULLY-SPECIFIED
:DEGREES
2620
root 1.07536 17.9934 -32.8806 -174.125 -170.905 184.017
lowerback 2.73474 -0.350439 -5.41582
upperback 0.639582 -0.585174 3.85498
thorax -0.779085 -0.286455 7.0914
lowerneck -16.6974 -11.8022 -9.93955
upperneck 18.4977 -13.8879 0.753108
head 9.31892 -7.11227 -0.0372665
rclavicle 2.62396e-014 1.74931e-014
rhumerus -24.9683 -8.17164 -74.9775
rradius 50.5376
rwrist -85.8978
rhand 1.30172 402.051
rfingers 7.12502
rthumb 26.8366 -346.065
lclavicle 2.62396e-014 1.74931e-014
lhumerus -18.3139 -31.6524 93.3767
lradius 84.2223
lwrist 47.8743
lhand 163.255 19.0108
lfingers 7.12502
lthumb -170.518 709.244
rfemur -32.4276 9.61365 10.5779
rtibia 55.5422
rfoot -25.798 -1.66113
rtoes -13.7412
lfemur -6.94268 5.90251 -30.0532
ltibia 16.2596
lfoot -11.4763 7.99603
ltoes -4.83154
2621
root 1.10089 17.9829 -32.8682 -174.268 -171.307 184.06
lowerback 2.96204 -0.526817 -5.39386
upperback 0.734976 -0.828176 4.08618
thorax -0.764856 -0.412432 7.33565
lowerneck -17.1076 -11.402 -10.4027
upperneck 18.1371 -13.1607 0.808294
head 9.26734 -6.7916 0.144322
rclavicle 3.00165e-014 3.97569e-014
rhumerus -24.9487 -9.39011 -74.0387
rradius 49.4737
rwrist -85.4612
rhand 0.800692 401.447
rfingers 7.12502
rthumb 26.3571 -346.741
lclavicle 3.00165e-014 3.97569e-014
lhumerus -18.6169 -29.6385 93.0191
lradius 83.6965
lwrist 46.9113
lhand 163.714 18.551
lfingers 7.12502
lthumb -170.075 708.805
rfemur -32.6736 9.90398 11.0972
rtibia 55.648
rfoot -25.8536 0.61988
rtoes -14.9914
lfemur -6.83658 5.7652 -30.1689
ltibia 16.472
lfoot -11.6208 7.87279
ltoes -4.51418
2622
root 1.11736 17.9728 -32.8551 -174.401 -171.707 184.18
lowerback 3.23045 -0.672852 -5.55566
upperback 0.788326 -1.03785 4.30417
thorax -0.817705 -0.517838 7.67462
lowerneck -17.9725 -10.8248 -10.5258
upperneck 18.1803 -12.1324 0.426778
head 9.36322 -6.35372 0.144048
rclavicle 5.76476e-015 -1.59028e-015
rhumerus -25.0858 -10.9222 -73.0171
rradius 48.3266
rwrist -84.9305
rhand 0.863725 401.424
rfingers 7.12502
rthumb 26.4174 -346.755
lclavicle 5.76476e-015 -1.59028e-015
lhumerus -19.1218 -27.8471 92.7352
lradius 83.1937
lwrist 46.3755
lhand 163.16 18.6958
lfingers 7.12502
lthumb -170.61 708.925
rfemur -32.9219 10.5307 11.517
rtibia 55.5284
rfoot -25.7807 2.52153
rtoes -15.8273
lfemur -6.74326 5.80059 -30.3143
ltibia 16.6478
lfoot -11.6062 7.59601
ltoes -4.93972
2623
root 1.13281 17.9624 -32.8319 -174.5 -172.054 184.325
lowerback 3.31327 -0.791177 -5.64206
upperback 0.880908 -1.20166 4.46163
thorax -0.733956 -0.606883 7.90029
lowerneck -18.6889 -10.096 -10.6091
upperneck 18.0656 -10.9465 0.1708
head 9.37737 -5.82928 0.220165
rclavicle 4.77083e-015 0
rhumerus -25.3744 -12.475 -71.9674
rradius 47.1126
rwrist -84.5431
rhand 1.88071 403.204
rfingers 7.12502
rthumb 27.3905 -344.826
lclavicle 4.77083e-015 0
lhumerus -19.6623 -26.0603 92.4243
lradius 82.731
lwrist 46.527
lhand 161.891 19.5839
lfingers 7.12502
lthumb -171.835 709.762
rfemur -33.1238 11.307 11.8862
rtibia 55.2255
rfoot -25.8201 4.41538
rtoes -15.7823
lfemur -6.67046 5.82233 -30.4793
ltibia 16.8251
lfoot -11.9009 7.28623
ltoes -4.88198
2624
root 1.15066 17.9595 -32.7979 -174.319 -172.381 184.3
lowerback 3.16509 -0.917306 -5.53639
upperback 0.81207 -1.35888 4.71484
thorax -0.69029 -0.686288 8.11385
lowerneck -19.2407 -9.15548 -10.7393
upperneck 18.0498 -9.48751 -0.0398347
head 9.39091 -5.18131 0.367553
rclavicle -5.56597e-015 4.77083e-015
rhumerus -25.8143 -13.9508 -70.7466
rradius 45.7509
rwrist -84.1475
rhand 2.32952 404.6
rfingers 7.12502
rthumb 27.8197 -343.361
lclavicle -5.56597e-015 4.77083e-015
lhumerus -20.5382 -24.3823 92.2646
lradius 82.2796
lwrist 46.6949
lhand 160.146 21.2468
lfingers 7.12502
lthumb -173.519 711.366
rfemur -33.5465 12.0643 12.3848
rtibia 54.7909
rfoot -26.3065 6.12331
rtoes -15.2785
lfemur -6.82456 5.91201 -30.51
ltibia 16.9531
lfoot -11.9131 6.998
ltoes -6.06912
2625
root 1.16468 17.9519 -32.7591 -174.125 -172.612 184.34
lowerback 2.92943 -1.00046 -5.51035
upperback 0.763596 -1.45874 4.97252
thorax -0.583729 -0.740112 8.37468
lowerneck -19.7694 -8.0555 -10.8308
upperneck 17.9241 -7.8004 -0.349554
head 9.34498 -4.43522 0.514363
rclavicle -1.19271e-014 1.74931e-014
rhumerus -26.1293 -15.5663 -69.496
rradius 44.35
rwrist -82.9774
rhand 0.385516 404.963
rfingers 7.12502
rthumb 25.9596 -343.284
lclavicle -1.19271e-014 1.74931e-014
lhumerus -21.4959 -22.826 92.2104
lradius 81.7494
lwrist 46.554
lhand 157.859 23.7422
lfingers 7.12502
lthumb -175.727 713.805
rfemur -33.9495 13.0557 12.7852
rtibia 54.3075
rfoot -26.841 6.88982
rtoes -15.951
lfemur -6.89701 6.22279 -30.5857
ltibia 16.9832
lfoot -11.9169 6.41939
ltoes -6.09826
2626
root 1.17172 17.9391 -32.7232 -173.929 -172.915 184.503
lowerback 2.59246 -1.09603 -5.54659
upperback 0.841706 -1.57621 5.1028
thorax -0.286377 -0.814588 8.52944
lowerneck -20.2022 -6.85815 -10.9278
upperneck 17.5187 -6.06392 -0.350938
head 9.19292 -3.62384 0.782601
rclavicle -1.39149e-014 9.54166e-015
rhumerus -26.3054 -17.4566 -68.3742
rradius 42.9313
rwrist -81.8169
rhand -0.998727 404.789
rfingers 7.12502
rthumb 24.6334 -343.645
lclavicle -1.39149e-014 9.54166e-015
lhumerus -22.1617 -21.4832 91.8041
lradius 81.2216
lwrist 46.8201
lhand 155.382 27.2423
lfingers 7.12502
lthumb -178.119 717.271
rfemur -34.3268 13.9941 13.0412
rtibia 53.817
rfoot -27.0918 7.18806
rtoes -16.5014
lfemur -6.95068 6.55345 -30.7527
ltibia 16.9191
lfoot -12.0359 5.61039
ltoes -4.96536
2627
root 1.17426 17.9319 -32.6832 -173.835 -173.709 184.665
lowerback 2.33056 -1.33914 -5.46577
upperback 0.980869 -1.89256 5.17465
thorax 0.065078 -0.993195 8.55465
lowerneck -20.4011 -5.54301 -10.9187
upperneck 16.8403 -4.25808 -0.280958
head 8.89615 -2.75292 1.07249
rclavicle 4.77083e-015 2.8625e-014
rhumerus -26.6824 -19.548 -67.2715
rradius 41.6416
rwrist -80.9761
rhand -0.929441 404.425
rfingers 7.12502
rthumb 24.6998 -344.001
lclavicle 4.77083e-015 2.8625e-014
lhumerus -22.8057 -20.2191 91.2107
lradius 80.7576
lwrist 47.1337
lhand 152.667 32.6788
lfingers 7.12502
lthumb -180.741 722.7
rfemur -34.3707 14.5653 13.3655
rtibia 53.3429
rfoot -26.8889 7.77896
rtoes -15.7283
lfemur -6.80594 6.84382 -30.8242
ltibia 16.7284
lfoot -12.1358 4.53084
ltoes -4.74499
2628
root 1.17593 17.9325 -32.6436 -173.658 -174.294 184.851
lowerback 2.04701 -1.47868 -5.25323
upperback 1.05893 -2.06673 5.13775
thorax 0.328776 -1.09252 8.38088
lowerneck -20.667 -4.1597 -10.775
upperneck 16.2503 -2.39306 -0.239695
head 8.63428 -1.84527 1.32624
rclavicle -3.49861e-014 4.92986e-014
rhumerus -27.4273 -21.5475 -66.0938
rradius 40.5633
rwrist -80.2969
rhand -0.345564 403.81
rfingers 7.12502
rthumb 25.2593 -344.538
lclavicle -3.49861e-014 4.92986e-014
lhumerus -23.7251 -19.0179 90.5827
lradius 80.4822
lwrist 47.2946
lhand 149.984 40.584
lfingers 7.12502
lthumb -183.333 730.63
rfemur -34.5882 15.1023 13.5501
rtibia 52.9411
rfoot -25.5079 9.34063
rtoes -10.9124
lfemur -6.69919 7.03853 -30.976
ltibia 16.3995
lfoot -12.0187 3.88965
ltoes -5.51842
2629
root 1.17494 17.9392 -32.6041 -173.412 -174.7 184.98
lowerback 1.90451 -1.56414 -5.07414
upperback 0.962333 -2.17211 5.17721
thorax 0.322355 -1.14133 8.31611
lowerneck -20.8001 -2.72953 -10.6163
upperneck 15.7321 -0.469098 -0.324809
head 8.3737 -0.919764 1.53175
rclavicle -3.10104e-014 4.77083e-015
rhumerus -28.4157 -23.1034 -64.8019
rradius 39.4996
rwrist -79.5395
rhand -0.458424 403.481
rfingers 7.12502
rthumb 25.1512 -344.882
lclavicle -3.10104e-014 4.77083e-015
lhumerus -24.8236 -17.6777 90.1032
lradius 80.0494
lwrist 47.2808
lhand 148.072 51.6304
lfingers 7.12502
lthumb -185.179 741.714
rfemur -34.9199 15.7869 13.6599
rtibia 52.6683
rfoot -25.9495 9.32727
rtoes -12.3102
lfemur -6.57637 7.37064 -31.0839
ltibia 15.893
lfoot -11.7463 3.23669
ltoes -6.52084
